<?xml version="1.0" encoding="UTF-8"?>
<svg version="1.1" xmlns="http://www.w3.org/2000/svg" width="512" height="512">
<path d="M0 0 C0.62132813 0.391875 1.24265625 0.78375 1.8828125 1.1875 C2.50414063 1.538125 3.12546875 1.88875 3.765625 2.25 C10.90002115 6.69741578 14.28924258 13.40679025 16.8828125 21.1875 C16.8828125 30.4275 16.8828125 39.6675 16.8828125 49.1875 C51.8628125 49.1875 86.8428125 49.1875 122.8828125 49.1875 C122.8828125 39.9475 122.8828125 30.7075 122.8828125 21.1875 C127.47424394 10.85677925 132.82187395 2.46261666 143.61328125 -1.921875 C152.26581004 -4.27883625 162.65233665 -3.98210142 170.77734375 -0.0625 C177.82064057 4.11904913 182.63989871 9.59727453 185.8828125 17.1875 C187.8828125 27.1875 187.8828125 27.1875 187.8828125 49.1875 C222.5328125 49.1875 257.1828125 49.1875 292.8828125 49.1875 C292.8828125 39.9475 292.8828125 30.7075 292.8828125 21.1875 C297.95290907 9.77978271 301.99817827 2.81818038 313.68359375 -1.95703125 C322.33119308 -4.26939298 332.65823894 -3.96451852 340.7734375 -0.0703125 C349.19066724 4.94885042 354.17300071 11.78314672 356.8828125 21.1875 C357.10986328 24.43896484 357.10986328 24.43896484 357.078125 27.8984375 C357.07167969 29.14238281 357.06523437 30.38632812 357.05859375 31.66796875 C357.04183594 32.95316406 357.02507812 34.23835938 357.0078125 35.5625 C356.99878906 36.87089844 356.98976563 38.17929687 356.98046875 39.52734375 C356.95696335 42.7475837 356.92410337 45.96744707 356.8828125 49.1875 C357.46135986 49.16655273 358.03990723 49.14560547 358.63598633 49.12402344 C380.27892693 48.44357679 380.27892693 48.44357679 388.8828125 53.1875 C389.676875 53.62320313 390.4709375 54.05890625 391.2890625 54.5078125 C401.17080843 60.53567751 406.96432493 68.94591198 410.43350571 79.93130726 C411.02833313 82.91823144 411.0124523 85.75566786 411.01703358 88.8022089 C411.01938581 89.46874795 411.02173804 90.135287 411.02416155 90.8220242 C411.03084207 93.06545289 411.03039361 95.30882355 411.02998352 97.55226135 C411.03328274 99.17304619 411.03700843 100.79383022 411.041125 102.41461319 C411.0511466 106.87656036 411.05486205 111.33849409 411.05751431 115.80045092 C411.06141691 120.60977604 411.0709953 125.4190905 411.07972717 130.22840881 C411.0994932 141.8472128 411.10955813 153.46601765 411.11845496 165.08483425 C411.12283778 170.55602205 411.12820462 176.02720888 411.13344383 181.49839592 C411.15045651 199.68551336 411.16495064 217.8726302 411.17219257 236.05975437 C411.17410248 240.77982649 411.17602281 245.4998986 411.17797852 250.2199707 C411.17846226 251.3931255 411.178946 252.5662803 411.1794444 253.77498525 C411.18774452 272.77891765 411.21308099 291.78278711 411.24555919 310.78669203 C411.27863027 330.29653714 411.2966414 349.80635027 411.29983681 369.31622356 C411.3020019 380.27070102 411.31075035 391.22508668 411.33629799 402.17953682 C411.35800565 411.50903357 411.36605506 420.83841624 411.35633121 430.16793538 C411.35178668 434.92676629 411.3536817 439.68536183 411.37309265 444.44416046 C411.39072615 448.8049239 411.3897251 453.16528028 411.37419536 457.52604806 C411.37181957 459.09947003 411.37614136 460.6729202 411.38802401 462.2462991 C411.48710336 476.23756941 408.7564459 487.60437436 399.10546875 498.125 C391.04026807 505.77786936 381.41910397 509.34489454 370.45600033 509.32172108 C369.70166585 509.32407331 368.94733137 509.32642554 368.17013827 509.32884905 C365.6280545 509.33553617 363.08602188 509.33508091 360.54393005 509.33467102 C358.7086557 509.33796983 356.87338207 509.34169543 355.03810936 509.3458125 C349.9832805 509.35583877 344.92846351 509.3595503 339.87362611 509.36220181 C334.42625891 509.36610301 328.97890112 509.37568149 323.53153992 509.38441467 C310.37026734 509.40418445 297.20899399 509.41424602 284.04771027 509.42314246 C277.85129041 509.42752459 271.65487141 509.4328916 265.45845222 509.43813133 C244.86253124 509.45514424 224.26661079 509.46963865 203.67068386 509.47688007 C198.32497087 509.47879 192.97925789 509.48070867 187.63354492 509.48266602 C186.96941498 509.48290617 186.30528503 509.48314632 185.62102993 509.48339374 C164.0928163 509.49128505 142.5646578 509.51471321 121.03646823 509.54722196 C98.27224492 509.58153437 75.50805236 509.60123141 52.74380261 509.60452431 C40.33615459 509.60669011 27.92858759 509.61544906 15.52096367 509.64098549 C4.95446479 509.66268228 -5.6119334 509.6707479 -16.17845202 509.66101871 C-21.5691556 509.65647107 -26.9596514 509.6583874 -32.35032654 509.67778015 C-37.28840634 509.69539118 -42.22612644 509.69443065 -47.16420995 509.67888286 C-48.94758957 509.67650368 -50.73099396 509.68084643 -52.5143357 509.69271151 C-67.08605471 509.78363113 -78.97847483 507.57079489 -90.0546875 497.41015625 C-97.42227518 489.64560803 -101.2354507 480.18475509 -101.25140858 469.5727911 C-101.25376081 468.90625205 -101.25611304 468.239713 -101.25853655 467.5529758 C-101.26521707 465.30954711 -101.26476861 463.06617645 -101.26435852 460.82273865 C-101.26765774 459.20195381 -101.27138343 457.58116978 -101.2755 455.96038681 C-101.2855216 451.49843964 -101.28923705 447.03650591 -101.29188931 442.57454908 C-101.29579191 437.76522396 -101.3053703 432.9559095 -101.31410217 428.14659119 C-101.3338682 416.5277872 -101.34393313 404.90898235 -101.35282996 393.29016575 C-101.35721278 387.81897795 -101.36257962 382.34779112 -101.36781883 376.87660408 C-101.38483151 358.68948664 -101.39932564 340.5023698 -101.40656757 322.31524563 C-101.40847748 317.59517351 -101.41039781 312.8751014 -101.41235352 308.1550293 C-101.41283726 306.9818745 -101.413321 305.8087197 -101.4138194 304.60001475 C-101.42211952 285.59608235 -101.44745599 266.59221289 -101.47993419 247.58830797 C-101.51300527 228.07846286 -101.5310164 208.56864973 -101.53421181 189.05877644 C-101.5363769 178.10429898 -101.54512535 167.14991332 -101.57067299 156.19546318 C-101.59238065 146.86596643 -101.60043006 137.53658376 -101.59070621 128.20706462 C-101.58616168 123.44823371 -101.5880567 118.68963817 -101.60746765 113.93083954 C-101.62510115 109.5700761 -101.6241001 105.20971972 -101.60857036 100.84895194 C-101.60619457 99.27552997 -101.61051636 97.7020798 -101.62239901 96.1287009 C-101.72147836 82.13743059 -98.9908209 70.77062564 -89.33984375 60.25 C-82.25741452 53.52965815 -72.9702976 49.02985908 -63.1328125 49.08984375 C-62.19824219 49.09306641 -61.26367188 49.09628906 -60.30078125 49.09960938 C-59.33269531 49.10798828 -58.36460938 49.11636719 -57.3671875 49.125 C-55.89185547 49.13176758 -55.89185547 49.13176758 -54.38671875 49.13867188 C-51.96347959 49.15043517 -49.54036477 49.16687316 -47.1171875 49.1875 C-47.13813477 48.39166504 -47.15908203 47.59583008 -47.18066406 46.77587891 C-47.26452518 43.12155112 -47.31606964 39.46742667 -47.3671875 35.8125 C-47.40070312 34.56082031 -47.43421875 33.30914062 -47.46875 32.01953125 C-47.57596048 21.78093016 -45.97463669 13.37893549 -38.8203125 5.71875 C-28.66159465 -3.41477614 -12.36547121 -6.77044811 0 0 Z " fill="#FEFEFE" transform="translate(101.1171875,2.8125)"/>
<path d="M0 0 C0.62132813 0.391875 1.24265625 0.78375 1.8828125 1.1875 C2.50414063 1.538125 3.12546875 1.88875 3.765625 2.25 C10.90002115 6.69741578 14.28924258 13.40679025 16.8828125 21.1875 C16.8828125 30.4275 16.8828125 39.6675 16.8828125 49.1875 C51.8628125 49.1875 86.8428125 49.1875 122.8828125 49.1875 C122.8828125 39.9475 122.8828125 30.7075 122.8828125 21.1875 C127.47424394 10.85677925 132.82187395 2.46261666 143.61328125 -1.921875 C152.26581004 -4.27883625 162.65233665 -3.98210142 170.77734375 -0.0625 C177.82064057 4.11904913 182.63989871 9.59727453 185.8828125 17.1875 C187.8828125 27.1875 187.8828125 27.1875 187.8828125 49.1875 C222.5328125 49.1875 257.1828125 49.1875 292.8828125 49.1875 C292.8828125 39.9475 292.8828125 30.7075 292.8828125 21.1875 C297.95290907 9.77978271 301.99817827 2.81818038 313.68359375 -1.95703125 C322.33119308 -4.26939298 332.65823894 -3.96451852 340.7734375 -0.0703125 C349.19066724 4.94885042 354.17300071 11.78314672 356.8828125 21.1875 C357.10986328 24.43896484 357.10986328 24.43896484 357.078125 27.8984375 C357.07167969 29.14238281 357.06523437 30.38632812 357.05859375 31.66796875 C357.04183594 32.95316406 357.02507812 34.23835938 357.0078125 35.5625 C356.99878906 36.87089844 356.98976563 38.17929687 356.98046875 39.52734375 C356.95696335 42.7475837 356.92410337 45.96744707 356.8828125 49.1875 C357.46135986 49.16655273 358.03990723 49.14560547 358.63598633 49.12402344 C380.27892693 48.44357679 380.27892693 48.44357679 388.8828125 53.1875 C389.676875 53.62320313 390.4709375 54.05890625 391.2890625 54.5078125 C401.17080843 60.53567751 406.96432493 68.94591198 410.43350571 79.93130726 C411.02833313 82.91823144 411.0124523 85.75566786 411.01703358 88.8022089 C411.01938581 89.46874795 411.02173804 90.135287 411.02416155 90.8220242 C411.03084207 93.06545289 411.03039361 95.30882355 411.02998352 97.55226135 C411.03328274 99.17304619 411.03700843 100.79383022 411.041125 102.41461319 C411.0511466 106.87656036 411.05486205 111.33849409 411.05751431 115.80045092 C411.06141691 120.60977604 411.0709953 125.4190905 411.07972717 130.22840881 C411.0994932 141.8472128 411.10955813 153.46601765 411.11845496 165.08483425 C411.12283778 170.55602205 411.12820462 176.02720888 411.13344383 181.49839592 C411.15045651 199.68551336 411.16495064 217.8726302 411.17219257 236.05975437 C411.17410248 240.77982649 411.17602281 245.4998986 411.17797852 250.2199707 C411.17846226 251.3931255 411.178946 252.5662803 411.1794444 253.77498525 C411.18774452 272.77891765 411.21308099 291.78278711 411.24555919 310.78669203 C411.27863027 330.29653714 411.2966414 349.80635027 411.29983681 369.31622356 C411.3020019 380.27070102 411.31075035 391.22508668 411.33629799 402.17953682 C411.35800565 411.50903357 411.36605506 420.83841624 411.35633121 430.16793538 C411.35178668 434.92676629 411.3536817 439.68536183 411.37309265 444.44416046 C411.39072615 448.8049239 411.3897251 453.16528028 411.37419536 457.52604806 C411.37181957 459.09947003 411.37614136 460.6729202 411.38802401 462.2462991 C411.48710336 476.23756941 408.7564459 487.60437436 399.10546875 498.125 C391.04026807 505.77786936 381.41910397 509.34489454 370.45600033 509.32172108 C369.70166585 509.32407331 368.94733137 509.32642554 368.17013827 509.32884905 C365.6280545 509.33553617 363.08602188 509.33508091 360.54393005 509.33467102 C358.7086557 509.33796983 356.87338207 509.34169543 355.03810936 509.3458125 C349.9832805 509.35583877 344.92846351 509.3595503 339.87362611 509.36220181 C334.42625891 509.36610301 328.97890112 509.37568149 323.53153992 509.38441467 C310.37026734 509.40418445 297.20899399 509.41424602 284.04771027 509.42314246 C277.85129041 509.42752459 271.65487141 509.4328916 265.45845222 509.43813133 C244.86253124 509.45514424 224.26661079 509.46963865 203.67068386 509.47688007 C198.32497087 509.47879 192.97925789 509.48070867 187.63354492 509.48266602 C186.96941498 509.48290617 186.30528503 509.48314632 185.62102993 509.48339374 C164.0928163 509.49128505 142.5646578 509.51471321 121.03646823 509.54722196 C98.27224492 509.58153437 75.50805236 509.60123141 52.74380261 509.60452431 C40.33615459 509.60669011 27.92858759 509.61544906 15.52096367 509.64098549 C4.95446479 509.66268228 -5.6119334 509.6707479 -16.17845202 509.66101871 C-21.5691556 509.65647107 -26.9596514 509.6583874 -32.35032654 509.67778015 C-37.28840634 509.69539118 -42.22612644 509.69443065 -47.16420995 509.67888286 C-48.94758957 509.67650368 -50.73099396 509.68084643 -52.5143357 509.69271151 C-67.08605471 509.78363113 -78.97847483 507.57079489 -90.0546875 497.41015625 C-97.42227518 489.64560803 -101.2354507 480.18475509 -101.25140858 469.5727911 C-101.25376081 468.90625205 -101.25611304 468.239713 -101.25853655 467.5529758 C-101.26521707 465.30954711 -101.26476861 463.06617645 -101.26435852 460.82273865 C-101.26765774 459.20195381 -101.27138343 457.58116978 -101.2755 455.96038681 C-101.2855216 451.49843964 -101.28923705 447.03650591 -101.29188931 442.57454908 C-101.29579191 437.76522396 -101.3053703 432.9559095 -101.31410217 428.14659119 C-101.3338682 416.5277872 -101.34393313 404.90898235 -101.35282996 393.29016575 C-101.35721278 387.81897795 -101.36257962 382.34779112 -101.36781883 376.87660408 C-101.38483151 358.68948664 -101.39932564 340.5023698 -101.40656757 322.31524563 C-101.40847748 317.59517351 -101.41039781 312.8751014 -101.41235352 308.1550293 C-101.41283726 306.9818745 -101.413321 305.8087197 -101.4138194 304.60001475 C-101.42211952 285.59608235 -101.44745599 266.59221289 -101.47993419 247.58830797 C-101.51300527 228.07846286 -101.5310164 208.56864973 -101.53421181 189.05877644 C-101.5363769 178.10429898 -101.54512535 167.14991332 -101.57067299 156.19546318 C-101.59238065 146.86596643 -101.60043006 137.53658376 -101.59070621 128.20706462 C-101.58616168 123.44823371 -101.5880567 118.68963817 -101.60746765 113.93083954 C-101.62510115 109.5700761 -101.6241001 105.20971972 -101.60857036 100.84895194 C-101.60619457 99.27552997 -101.61051636 97.7020798 -101.62239901 96.1287009 C-101.72147836 82.13743059 -98.9908209 70.77062564 -89.33984375 60.25 C-82.25741452 53.52965815 -72.9702976 49.02985908 -63.1328125 49.08984375 C-62.19824219 49.09306641 -61.26367188 49.09628906 -60.30078125 49.09960938 C-59.33269531 49.10798828 -58.36460938 49.11636719 -57.3671875 49.125 C-55.89185547 49.13176758 -55.89185547 49.13176758 -54.38671875 49.13867188 C-51.96347959 49.15043517 -49.54036477 49.16687316 -47.1171875 49.1875 C-47.13813477 48.39166504 -47.15908203 47.59583008 -47.18066406 46.77587891 C-47.26452518 43.12155112 -47.31606964 39.46742667 -47.3671875 35.8125 C-47.40070312 34.56082031 -47.43421875 33.30914062 -47.46875 32.01953125 C-47.57596048 21.78093016 -45.97463669 13.37893549 -38.8203125 5.71875 C-28.66159465 -3.41477614 -12.36547121 -6.77044811 0 0 Z M-76.8241272 77.04867554 C-82.81114467 85.52893317 -81.8788482 94.60785836 -81.703125 104.5390625 C-81.69191705 106.40805695 -81.68338443 108.27706918 -81.67739868 110.14608765 C-81.65462601 115.03568255 -81.59580435 119.92418682 -81.5291748 124.81335449 C-81.46750104 129.81422172 -81.44033036 134.81526732 -81.41015625 139.81640625 C-81.34604837 149.60724674 -81.24381113 159.39728224 -81.1171875 169.1875 C-80.12712613 169.19081015 -79.13706476 169.19412029 -78.11700153 169.19753075 C-54.03929085 169.27848388 -29.96164414 169.37078683 -5.88402271 169.47502708 C5.75967784 169.52517321 17.40337128 169.57161593 29.04711914 169.609375 C39.19445445 169.64229077 49.34173489 169.68211973 59.48900968 169.73029006 C64.86312046 169.75555912 70.23719482 169.77733925 75.61134911 169.79084396 C80.6682291 169.80366054 85.72498423 169.82571073 90.7817955 169.85488319 C92.63896015 169.8639621 94.49614492 169.86964993 96.35333061 169.87171364 C98.88720047 169.87503394 101.42071584 169.89050512 103.95451355 169.9090271 C105.05909677 169.906125 105.05909677 169.906125 106.1859948 169.90316427 C110.17024313 169.9467617 113.36254415 170.2532027 116.8828125 172.1875 C119.35032489 175.88876859 119.19002406 177.80973532 118.8828125 182.1875 C118.1953125 184.5 118.1953125 184.5 116.8828125 186.1875 C112.64876309 188.39545103 108.62465943 188.4782429 103.95451355 188.4659729 C103.16211582 188.4717653 102.36971809 188.4775577 101.55330831 188.48352563 C98.90162703 188.50051307 96.25011994 188.50340105 93.59838867 188.50634766 C91.69619317 188.5156467 89.79400176 188.52581533 87.89181519 188.53678894 C82.72906144 188.56410568 77.56633501 188.57924335 72.40352798 188.59221697 C67.00761896 188.60784014 61.61176578 188.63463297 56.21589661 188.6602478 C45.99857754 188.70704997 35.78124799 188.74378715 25.56387645 188.77692068 C13.93154102 188.81513188 2.29926166 188.86454468 -9.33302653 188.91490483 C-33.26103865 189.01824609 -57.18908677 189.10749939 -81.1171875 189.1875 C-81.23132915 219.97400859 -81.31977637 250.76046864 -81.37251415 281.54713839 C-81.37876744 285.18442073 -81.38523908 288.82170266 -81.3918457 292.45898438 C-81.39315726 293.18308066 -81.39446881 293.90717695 -81.3958201 294.65321554 C-81.41755771 306.36710443 -81.4569701 318.08087023 -81.50295148 329.79468618 C-81.54976204 341.82031876 -81.57749259 353.84588701 -81.58762997 365.87160695 C-81.59386608 372.62371758 -81.60882455 379.37557188 -81.64583778 386.12759018 C-81.6798248 392.48545461 -81.69023469 398.84292577 -81.68272591 405.20087242 C-81.68409921 407.53167675 -81.69401505 409.86249449 -81.71321487 412.19322014 C-81.73819444 415.38253749 -81.73207386 418.57038168 -81.71846008 421.75973511 C-81.73302429 422.67610713 -81.7475885 423.59247915 -81.76259404 424.53662002 C-81.68454067 431.32937708 -79.77834057 436.4645171 -76.1171875 442.1875 C-73.88531862 444.47379948 -73.88531862 444.47379948 -71.4296875 445.75 C-70.66269531 446.20503906 -69.89570312 446.66007812 -69.10546875 447.12890625 C-65.25666176 449.17807461 -62.34629271 449.33089596 -58.03741264 449.32172108 C-56.9257522 449.32524942 -56.9257522 449.32524942 -55.79163396 449.32884905 C-53.28253281 449.33556083 -50.77348318 449.33508017 -48.26437378 449.33467102 C-46.45756104 449.3379683 -44.65074904 449.34169358 -42.84393799 449.3458125 C-37.85860959 449.35585625 -32.87329323 449.35955311 -27.88795614 449.36220181 C-22.51900308 449.36609788 -17.15005962 449.37567674 -11.78111267 449.38441467 C1.1955864 449.40419963 14.17228627 449.41424821 27.14899665 449.42314246 C33.25565156 449.42752235 39.36230559 449.43288996 45.46895981 449.43813133 C65.76198967 449.45514622 86.05501898 449.46964094 106.34805489 449.47688007 C111.61712774 449.47879006 116.8862006 449.48071038 122.15527344 449.48266602 C123.46492384 449.48314976 124.77457423 449.4836335 126.12391101 449.4841319 C147.34477941 449.49243418 168.56559147 449.51777331 189.78643526 449.55024669 C211.55961728 449.58329438 233.33277065 449.60132679 255.10597789 449.60452431 C267.33638492 449.60669162 279.56670981 449.61547238 291.79709244 449.64098549 C302.21221106 449.66266126 312.62722761 449.67075832 323.04236622 449.66101871 C328.35775041 449.65646486 333.67292387 449.65842324 338.98827934 449.67778015 C343.85411743 449.69534721 348.71959006 449.69446665 353.58543168 449.67888286 C355.34593769 449.67649694 357.10646858 449.68088109 358.86693646 449.69271151 C369.03495472 449.75680961 376.41397919 449.66199998 384.6328125 442.9375 C390.09074967 436.26668791 391.4714294 430.51661923 391.36383057 422.00024414 C391.36724827 421.00110552 391.37066597 420.0019669 391.37418723 418.97255135 C391.38075333 415.63895713 391.35881034 412.30617576 391.33691406 408.97265625 C391.33578531 406.5774182 391.33641998 404.18217877 391.33868408 401.78694153 C391.3397121 395.96724432 391.32239928 390.1478115 391.29693344 384.32817465 C391.26828325 377.5535507 391.26234793 370.77896377 391.25778076 364.00428772 C391.24903715 351.92386396 391.22244703 339.84354856 391.18457031 327.76318359 C391.14782598 316.03174378 391.1195261 304.30033344 391.10253906 292.56884766 C391.10096272 291.48324045 391.10096272 291.48324045 391.09935454 290.37570179 C391.09413419 286.74473773 391.08907941 283.11377347 391.08410692 279.48280907 C391.04267399 249.38429682 390.97195271 219.28591111 390.8828125 189.1875 C389.38087656 189.18530016 389.38087656 189.18530016 387.84859848 189.18305588 C363.50415912 189.1464886 339.15985763 189.08707553 314.81553268 189.00359726 C303.04287227 188.96375898 291.27027918 188.93139084 279.49755859 188.91650391 C269.23849296 188.90351219 258.97957514 188.87661113 248.72059274 188.83288693 C243.28666399 188.81021626 237.85291792 188.79459267 232.41893768 188.79561615 C227.30696357 188.79635945 222.19539416 188.7785417 217.0835247 188.74633217 C215.20498181 188.73779573 213.32639371 188.73610847 211.44783974 188.74169731 C208.88701078 188.74830262 206.32748257 188.73050118 203.76678467 188.70648193 C203.01970112 188.71424235 202.27261756 188.72200277 201.50289512 188.72999835 C198.0380262 188.67228171 196.21641331 188.44933429 193.45256424 186.28006363 C190.6117014 182.49304043 190.40046993 179.93053527 190.8828125 175.1875 C193.58031021 171.60023345 195.07522537 170.32667607 199.54343891 169.55664349 C200.99103321 169.52841771 202.43931863 169.52749964 203.88703918 169.54826355 C204.68760402 169.53990787 205.48816885 169.5315522 206.31299323 169.52294332 C208.99271623 169.50101439 211.67106862 169.51461957 214.35083008 169.52807617 C216.27273601 169.51962351 218.19463337 169.50897965 220.11651611 169.49630737 C225.33311497 169.46812745 230.54930312 169.47063864 235.76595521 169.47860122 C241.21794867 169.48172313 246.6698106 169.45670114 252.12174988 169.43464661 C262.44536131 169.39717031 272.768841 169.38505648 283.09251374 169.3820222 C294.84579494 169.37733527 306.59894385 169.34442366 318.35216677 169.30912435 C342.52903265 169.23714543 366.70584813 169.20066597 390.8828125 169.1875 C391.02222946 158.40813506 391.12864446 147.62898687 391.19368553 136.84890175 C391.2249125 131.84246451 391.26722639 126.83664703 391.33544922 121.83056641 C391.4009513 116.99350322 391.4365834 112.1570337 391.45207596 107.319561 C391.46310721 105.48003171 391.48464863 103.64053256 391.51719284 101.80125809 C391.92811841 87.3883771 391.92811841 87.3883771 384.8828125 75.1875 C380.26682984 71.54937367 375.86534339 69.0447742 369.87109375 69.08984375 C369.11376953 69.09306641 368.35644531 69.09628906 367.57617188 69.09960938 C366.79048828 69.10798828 366.00480469 69.11636719 365.1953125 69.125 C363.99938477 69.13176758 363.99938477 69.13176758 362.77929688 69.13867188 C360.81376993 69.1504415 358.84828165 69.16837652 356.8828125 69.1875 C356.87870361 69.79110352 356.87459473 70.39470703 356.87036133 71.01660156 C356.70794588 84.64910421 356.03248236 94.7607675 348.8203125 106.5625 C340.7378043 113.7851669 331.36140824 116.58310318 320.7265625 116.46875 C316.23062339 116.02409668 312.76451603 114.41929539 308.8828125 112.1875 C308.25503906 111.84847656 307.62726563 111.50945312 306.98046875 111.16015625 C299.66120646 106.65969082 296.50632775 99.05804575 293.8828125 91.1875 C293.5528125 83.9275 293.2228125 76.6675 292.8828125 69.1875 C257.9028125 69.1875 222.9228125 69.1875 186.8828125 69.1875 C186.5528125 76.7775 186.2228125 84.3675 185.8828125 92.1875 C180.74885145 103.73891235 177.29931866 109.86522634 165.671875 114.88671875 C158.55841314 117.56659768 151.57912462 117.59057261 144.4765625 114.89453125 C141.5218708 113.44228594 138.70765757 111.87541052 135.8828125 110.1875 C135.15320313 109.87554687 134.42359375 109.56359375 133.671875 109.2421875 C131.3634923 107.88135054 130.91499 106.63283039 129.8828125 104.1875 C128.60147608 101.92021313 127.30555731 99.66193018 126.00390625 97.40625 C121.67228726 88.83356851 123.29672607 78.29359851 122.8828125 69.1875 C87.9028125 69.1875 52.9228125 69.1875 16.8828125 69.1875 C16.5528125 76.4475 16.2228125 83.7075 15.8828125 91.1875 C11.07255839 103.21313528 8.288618 108.64753733 -3.1171875 114.1875 C-10.68019355 117.1500144 -19.31855206 117.73380643 -26.9296875 114.5625 C-28.3468973 113.80976952 -29.74393403 113.01771788 -31.1171875 112.1875 C-31.81585938 111.79820313 -32.51453125 111.40890625 -33.234375 111.0078125 C-40.38690801 106.44638579 -43.50341912 99.02880515 -46.1171875 91.1875 C-46.26496686 89.48882812 -46.36465816 87.78572511 -46.43359375 86.08203125 C-46.47548828 85.09912109 -46.51738281 84.11621094 -46.56054688 83.10351562 C-46.59986328 82.07935547 -46.63917969 81.05519531 -46.6796875 80 C-46.72287109 78.96423828 -46.76605469 77.92847656 -46.81054688 76.86132812 C-46.91663116 74.3035181 -47.01868896 71.74561155 -47.1171875 69.1875 C-63.57110072 68.13349527 -63.57110072 68.13349527 -76.8241272 77.04867554 Z " fill="#000000" transform="translate(101.1171875,2.8125)"/>
<path d="M0 0 C0.00410889 0.60360352 0.00821777 1.20720703 0.01245117 1.82910156 C0.19758256 20.71593657 0.19758256 20.71593657 8.3125 37.4375 C15.97850124 44.74694304 23.98022708 47.54377237 34.5390625 47.38671875 C42.29455456 46.52013442 49.23295163 43.22190449 55 38 C56.77023392 35.66513801 56.77023392 35.66513801 58.1875 33.125 C58.67605469 32.30257812 59.16460937 31.48015625 59.66796875 30.6328125 C64.96008498 20.17273526 63.39444967 13.32210717 64 0 C98.98 0 133.96 0 170 0 C170.33 7.26 170.66 14.52 171 22 C174.21400947 30.52807712 174.21400947 30.52807712 179 37 C179 37.66 179 38.32 179 39 C179.54914063 39.26554687 180.09828125 39.53109375 180.6640625 39.8046875 C182.31411878 40.64903068 183.93230625 41.55707464 185.5234375 42.5078125 C193.37846247 46.96258008 200.02430625 48.59827771 209 47 C217.95824812 43.97973737 225.44345704 39.56523178 230 31 C234.28539014 20.83000385 234.28539014 20.83000385 234 0 C268.98 0 303.96 0 340 0 C340.33 7.26 340.66 14.52 341 22 C346.06041817 34.65104542 349.78474722 40.59270519 361.875 46.375 C372.18479644 48.43695929 381.71953145 46.76819465 390.75 41.4375 C397.26537572 36.81331298 401.02706633 29.62867684 403 22 C403.37125427 18.21240487 403.5072322 14.42791864 403.625 10.625 C403.66367187 9.60277344 403.70234375 8.58054687 403.7421875 7.52734375 C403.83597964 5.01840403 403.92167879 2.50946236 404 0 C423.8297448 -1.03519549 423.8297448 -1.03519549 431 5 C436.20913025 11.21665749 438.15058395 15.9158995 438.11352539 23.93798828 C438.11367142 24.75758026 438.11381744 25.57717224 438.1139679 26.42160034 C438.11326974 29.1378644 438.10548188 31.85406038 438.09765625 34.5703125 C438.09579173 36.45075442 438.09436798 38.33119683 438.09336853 40.2116394 C438.08954607 45.16661922 438.07971808 50.12156983 438.06866455 55.07653809 C438.05844461 60.13044845 438.05386966 65.18436353 438.04882812 70.23828125 C438.03809559 80.15886701 438.0210224 90.07943108 438 100 C436.99963117 100.00054477 435.99926233 100.00108953 434.96857929 100.00165081 C410.64046944 100.01603879 386.31253868 100.05902451 361.98453236 100.13209057 C350.21972894 100.16676085 338.45504295 100.19209877 326.69018555 100.19555664 C316.43731669 100.19859369 306.18465684 100.21904934 295.93186873 100.26052457 C290.50177926 100.28187968 285.07198711 100.29444222 279.64185524 100.28615379 C274.53227217 100.27862965 269.42329234 100.29436993 264.31381989 100.32806015 C262.43730891 100.33631317 260.56073817 100.33602021 258.68423271 100.32659721 C256.12351623 100.3150101 253.56478829 100.33403839 251.00422668 100.36076355 C250.26005597 100.35009029 249.51588526 100.33941703 248.74916393 100.32842034 C244.88884565 100.40369038 243.14179448 100.88947289 240.06223583 103.28995228 C237.72152153 105.99622667 237.72152153 105.99622667 237 110 C228.75 110 220.5 110 212 110 C211.67 111.65 211.34 113.3 211 115 C209.27827619 117.58258572 207.88392195 118.72738856 204.91015625 119.64453125 C202.48474852 120.07634261 200.45162996 120.25783631 198 120 C193.59445348 116.87940455 193.08051055 115.40255276 192 110 C183.75 110 175.5 110 167 110 C166.01 107.69 165.02 105.38 164 103 C160.04619393 100.43849003 155.65000545 100.70949839 151.07170105 100.7215271 C150.27930332 100.7157347 149.48690559 100.7099423 148.67049581 100.70397437 C146.01881453 100.68698693 143.36730744 100.68409895 140.71557617 100.68115234 C138.81338067 100.6718533 136.91118926 100.66168467 135.00900269 100.65071106 C129.84624894 100.62339432 124.68352251 100.60825665 119.52071548 100.59528303 C114.12480646 100.57965986 108.72895328 100.55286703 103.33308411 100.5272522 C93.11576504 100.48045003 82.89843549 100.44371285 72.68106395 100.41057932 C61.04872852 100.37236812 49.41644916 100.32295532 37.78416097 100.27259517 C13.85614885 100.16925391 -10.07189927 100.08000061 -34 100 C-34.13941696 89.22063506 -34.24583196 78.44148687 -34.31087303 67.66140175 C-34.3421 62.65496451 -34.38441389 57.64914703 -34.45263672 52.64306641 C-34.5181388 47.80600322 -34.5537709 42.9695337 -34.56926346 38.132061 C-34.58029471 36.29253171 -34.60183613 34.45303256 -34.63438034 32.61375809 C-34.95746868 13.58613238 -34.95746868 13.58613238 -28 6 C-19.69418239 -1.57232898 -10.58167285 -0.62245134 0 0 Z " fill="#F4727E" transform="translate(54,72)"/>
<path d="M0 0 C9.35312404 5.84408456 13.48863779 15.48819816 17.9375 25.125 C18.55346653 26.43547042 19.17064713 27.74537091 19.7890625 29.0546875 C20.92464283 31.4609928 22.05161698 33.87059959 23.17285156 36.28369141 C23.67268555 37.34507324 24.17251953 38.40645508 24.6875 39.5 C25.24836304 41.13630371 25.24836304 41.13630371 25.82055664 42.80566406 C27.90251279 45.81030223 28.27639046 45.96637141 31.66479492 46.66845703 C33.32910308 46.89201247 34.9974582 47.08665995 36.66796875 47.2578125 C37.55478836 47.37301239 38.44160797 47.48821228 39.3553009 47.60690308 C42.19266222 47.9722997 45.03262868 48.30107893 47.875 48.625 C50.69862561 48.96042771 53.52060703 49.30398778 56.34114075 49.66452026 C58.09450295 49.88730115 59.84982667 50.09532875 61.60697937 50.28591919 C68.53459313 51.14448488 75.44250283 53.17948727 80 58.8125 C84.42438377 64.50271564 86.28560274 69.82889973 86.03515625 77.015625 C84.56389857 87.52933154 75.47788644 95.1715912 67.6875 101.5 C66.1981632 102.48495196 64.70073738 103.45778627 63.1953125 104.41796875 C58.08169764 108.02691375 53.91802883 111.50580669 51.6875 117.5 C50.83843748 127.3991981 54.04035641 137.70777404 56.35238647 147.24197388 C58.26474707 155.38621963 59.51281069 164.16418858 55.0859375 171.68359375 C51.09752494 176.86407375 46.25625593 181.31762393 39.6875 182.5 C27.69911478 183.81579838 18.17069032 177.89682831 7.875 172.4375 C6.86501953 171.90833984 5.85503906 171.37917969 4.81445312 170.83398438 C-2.95822717 166.74499019 -2.95822717 166.74499019 -5.82299805 164.76391602 C-8.22644782 163.27421651 -8.22644782 163.27421651 -10.84960938 163.68505859 C-13.26403792 164.48396447 -15.45056948 165.39043262 -17.71875 166.5390625 C-18.53923828 166.95164307 -19.35972656 167.36422363 -20.20507812 167.78930664 C-21.06552734 168.23008545 -21.92597656 168.67086426 -22.8125 169.125 C-24.1418457 169.79680298 -24.1418457 169.79680298 -25.49804688 170.48217773 C-31.65970074 173.61054829 -37.7496652 176.84973054 -43.78125 180.22265625 C-50.15815497 183.44063144 -57.23969222 183.43746678 -64 181.375 C-70.8837009 177.47856553 -74.67420637 173.85697344 -77.68359375 166.453125 C-79.81725002 156.43421732 -77.20242886 146.47837929 -75.25 136.625 C-74.66600121 133.67106369 -74.09347218 130.7152188 -73.52734375 127.7578125 C-73.32273781 126.75308395 -73.32273781 126.75308395 -73.11399841 125.72805786 C-72.45774387 122.29879727 -72.15061678 119.80003492 -73.3125 116.5 C-74.49749764 114.89881243 -74.49749764 114.89881243 -76.04052734 113.46313477 C-76.89679214 112.61689293 -76.89679214 112.61689293 -77.77035522 111.7535553 C-78.39012238 111.15554611 -79.00988953 110.55753693 -79.6484375 109.94140625 C-80.6011705 109.00215553 -80.6011705 109.00215553 -81.57315063 108.04393005 C-83.60426422 106.04283746 -85.64495279 104.05191598 -87.6875 102.0625 C-89.72205739 100.0758457 -91.75426517 98.08700031 -93.78042603 96.09178162 C-95.04076708 94.85111503 -96.30601144 93.61540438 -97.57675171 92.38539124 C-103.47632218 86.58634478 -105.84803576 82.06723171 -106.6875 73.8125 C-106.55466485 67.41226107 -103.56375817 62.31539078 -99.64453125 57.4140625 C-92.93772364 51.06869961 -84.20065438 50.79046603 -75.43994141 49.76757812 C-72.23861979 49.36493313 -69.12163839 48.69719918 -65.99047852 47.92944336 C-63.3125 47.5 -63.3125 47.5 -59.91894531 47.63012695 C-55.67766342 47.61121713 -52.09712791 47.53667722 -48.3125 45.5 C-43.46350212 40.35029133 -41.01972711 33.17282355 -38.3125 26.75 C-37.14683927 24.10661189 -35.96496373 21.47198719 -34.76513672 18.84393311 C-34.02628395 17.21359198 -33.30895082 15.57325692 -32.61767578 13.92218018 C-29.67482378 7.22869407 -25.52560647 3.74170219 -19.625 -0.375 C-13.31627507 -2.51758583 -6.18333601 -2.71198948 0 0 Z " fill="#030202" transform="translate(266.3125,227.5)"/>
<path d="M0 0 C2.37182617 0.11108398 2.37182617 0.11108398 5 1 C6.6340332 3.24633789 6.6340332 3.24633789 8.05078125 6.22265625 C8.58058594 7.3118335 9.11039062 8.40101074 9.65625 9.52319336 C10.2028125 10.69116455 10.749375 11.85913574 11.3125 13.0625 C11.88355469 14.24013916 12.45460938 15.41777832 13.04296875 16.63110352 C15.15504025 20.99113347 17.22940855 25.36839795 19.29833984 29.74902344 C20.03387427 31.30247713 20.77406445 32.85374048 21.52026367 34.40209961 C22.15297287 35.71655178 22.77263986 37.03739885 23.3762207 38.36547852 C25.30353925 42.38151666 27.04276833 44.03642476 31 46 C34.10942295 46.71983292 34.10942295 46.71983292 37.48828125 47.0625 C39.37426025 47.29598145 39.37426025 47.29598145 41.29833984 47.53417969 C41.95517761 47.61035522 42.61201538 47.68653076 43.28875732 47.76501465 C46.67334896 48.15801395 50.05326711 48.58771869 53.43359375 49.015625 C54.73538574 49.17998047 56.03717773 49.34433594 57.37841797 49.51367188 C63.97509713 50.39951419 70.48843302 51.62695393 77 53 C77.6869812 54.78349304 77.6869812 54.78349304 78 57 C76.83621216 58.72468567 76.83621216 58.72468567 75.00830078 60.46411133 C74.33074738 61.12192093 73.65319397 61.77973053 72.95510864 62.45747375 C72.20937592 63.15857773 71.46364319 63.8596817 70.6953125 64.58203125 C69.1470645 66.08651556 67.59888972 67.59107523 66.05078125 69.09570312 C63.59034052 71.45671475 61.12502502 73.81247615 58.65673828 76.1652832 C56.28199452 78.43736753 53.92577949 80.72749433 51.5703125 83.01953125 C50.82862823 83.71456253 50.08694397 84.40959381 49.32278442 85.12568665 C46.14138223 88.22990218 44.23411215 90.21030828 42.953125 94.53125 C43.0043788 98.32403105 43.44582713 101.75753318 44.1796875 105.48046875 C44.31190704 106.17457352 44.44412659 106.86867828 44.58035278 107.58381653 C45.00134387 109.78724424 45.43696501 111.98740272 45.875 114.1875 C46.44285559 117.07533185 47.00324414 119.96445738 47.5546875 122.85546875 C47.6874408 123.55082733 47.82019409 124.24618591 47.95697021 124.96261597 C49.06299553 130.94658945 49.67461941 136.92209478 50 143 C46.45116045 144.25865965 45.04509716 144.01794121 41.48242188 142.60058594 C40.13694687 141.90975844 38.7993955 141.20335218 37.46875 140.484375 C36.39844543 139.92692596 36.39844543 139.92692596 35.30651855 139.35821533 C33.03052289 138.1685667 30.76549035 136.95951291 28.5 135.75 C26.9759208 134.95056266 25.45118726 134.15237148 23.92578125 133.35546875 C12.85717611 127.55000442 12.85717611 127.55000442 9.31982422 125.28027344 C5.27095018 123.04576539 1.48703571 123.26320191 -3 124 C-6.77766026 125.45849061 -10.1565624 127.42277784 -13.625 129.5 C-15.55233879 130.59949295 -17.48073343 131.69713703 -19.41015625 132.79296875 C-20.82385498 133.60773682 -20.82385498 133.60773682 -22.26611328 134.43896484 C-26.1516525 136.65758761 -30.08359823 138.76690858 -34.0625 140.8125 C-34.69816895 141.15539062 -35.33383789 141.49828125 -35.98876953 141.8515625 C-38.88417042 143.33113675 -40.65959494 144.03490172 -43.93359375 143.69921875 C-44.95646484 143.35310547 -44.95646484 143.35310547 -46 143 C-45.35364255 134.97359105 -44.13747912 127.05254403 -42.84326172 119.11083984 C-42.49625476 116.97696918 -42.15608409 114.84207951 -41.81640625 112.70703125 C-41.59675884 111.34628878 -41.37672139 109.98560921 -41.15625 108.625 C-40.95837891 107.40039062 -40.76050781 106.17578125 -40.55664062 104.9140625 C-40 102 -40 102 -39 100 C-38.50793063 95.81741034 -38.65870232 92.9805197 -41 89.5 C-42.98341413 87.05849041 -45.06121039 85.00473309 -47.46484375 82.98046875 C-52.51797321 78.61003826 -57.30703291 73.98528968 -62.05786133 69.29223633 C-63.07184402 68.29503544 -64.0911881 67.30326057 -65.11547852 66.31665039 C-66.6112781 64.87529517 -68.09023783 63.41845204 -69.56640625 61.95703125 C-70.88040405 60.67276245 -70.88040405 60.67276245 -72.22094727 59.36254883 C-74 57 -74 57 -73.77709961 54.69018555 C-73.52065674 54.13242432 -73.26421387 53.57466309 -73 53 C-70.58414322 52.57818374 -68.16753775 52.16202122 -65.75 51.75 C-64.97237305 51.61650146 -64.19474609 51.48300293 -63.39355469 51.34545898 C-58.20070992 50.47484704 -53.0034838 49.72415288 -47.78125 49.05078125 C-46.53762695 48.88674805 -45.29400391 48.72271484 -44.01269531 48.55371094 C-41.53453642 48.23019318 -39.05468931 47.9193167 -36.57324219 47.62207031 C-27.99139095 46.6473294 -27.99139095 46.6473294 -21 42 C-18.74649032 38.40225804 -16.92859823 34.65177819 -15.125 30.8125 C-14.60832764 29.74636475 -14.09165527 28.68022949 -13.55932617 27.58178711 C-12.02117104 24.39624035 -10.50674474 21.20050576 -9 18 C-8.5673584 17.08541016 -8.1347168 16.17082031 -7.68896484 15.22851562 C-5.49088209 10.57890137 -5.49088209 10.57890137 -3.32275391 5.9152832 C-1.09885649 1.09885649 -1.09885649 1.09885649 0 0 Z " fill="#FCC97B" transform="translate(254,246)"/>
<path d="M0 0 C0.79704302 0.35380566 1.59408605 0.70761132 2.41528189 1.07213837 C12.57914106 5.18443816 21.53663703 5.7033168 32.40975952 5.61473083 C34.23930794 5.61835007 36.0688531 5.62416043 37.8983885 5.63195282 C42.89099463 5.64692133 47.88308265 5.63096244 52.87564778 5.6096462 C58.27302717 5.59209139 63.67035748 5.603547 69.06774902 5.61131287 C79.62576962 5.62196249 90.18359007 5.60607379 100.74158017 5.5811746 C113.03996295 5.55319902 125.33830558 5.55190146 137.63671489 5.55173159 C159.57767691 5.55054534 181.51854718 5.52560216 203.45947266 5.48706055 C224.74725334 5.44969052 246.03494178 5.42846291 267.32275391 5.42553711 C268.6348046 5.4253543 269.94685529 5.42517149 271.29866509 5.42498314 C272.60845655 5.42480417 273.91824801 5.4246252 275.26773012 5.4244408 C277.90494943 5.42407538 280.54216874 5.42370301 283.17938805 5.42332363 C284.47999191 5.42313812 285.78059577 5.4229526 287.12061187 5.42276147 C307.41640851 5.41919156 327.71219487 5.40074299 348.00798105 5.38083039 C355.36204448 5.37380962 362.71610547 5.36902589 370.07017152 5.36586904 C381.73087825 5.36082037 393.3915386 5.3493937 405.05222146 5.32456874 C410.37977172 5.31334774 415.70727645 5.30523231 421.03483963 5.30570221 C425.91122609 5.30601054 430.78750485 5.29707534 435.66386314 5.28073419 C437.42803863 5.27641639 439.19222616 5.27544679 440.95640485 5.27816027 C443.35501152 5.28132898 445.75327485 5.27221209 448.15184593 5.26006222 C448.83594864 5.26388701 449.52005135 5.2677118 450.22488445 5.27165249 C456.65242221 5.21435957 462.52878238 3.72083549 468.5 1.375 C469.655 0.92125 470.81 0.4675 472 0 C472.68274943 8.19299317 470.94279554 13.4032499 465.75 19.75 C456.85355823 27.0289069 448.37772343 26.57296278 437.43911743 26.52139282 C435.62854615 26.52743648 433.81797997 26.53521577 432.0074228 26.54457796 C427.03942461 26.56514772 422.07171492 26.560772 417.10369301 26.55221677 C411.7429607 26.54728406 406.38229802 26.56530835 401.02159119 26.58029175 C390.52228706 26.60579477 380.02308521 26.60937203 369.52375533 26.60469122 C360.98998072 26.60112564 352.45623717 26.6046225 343.92246628 26.61314011 C342.10084762 26.61492567 342.10084762 26.61492567 340.24242859 26.61674731 C337.77537517 26.61917081 335.30832176 26.62159907 332.84126835 26.62403207 C309.70349378 26.64578656 286.56577751 26.64145638 263.42799966 26.62926237 C242.26054954 26.61892334 221.09328348 26.64143603 199.92586978 26.67945881 C178.19089227 26.7182018 156.45600186 26.73473007 134.72098958 26.72721231 C122.51852765 26.72338616 110.31622239 26.72838391 98.1137886 26.75664139 C87.72589913 26.78045343 77.33826276 26.78329648 66.95036985 26.75906105 C61.65081349 26.74727253 56.35172027 26.74511405 51.0521946 26.76906586 C46.19865106 26.79074702 41.34595835 26.78462233 36.49245493 26.75654249 C34.73882697 26.75123833 32.98513272 26.75601419 31.23156972 26.77201422 C21.72372074 26.85272985 13.45169559 26.76572041 6 20 C0.7659368 13.47354966 -0.13635073 8.18104395 0 0 Z " fill="#E0E2E8" transform="translate(20,466)"/>
<path d="M0 0 C4.13878681 1.82876626 6.47423438 4.2803605 9 8 C9.50120544 10.95935059 9.50120544 10.95935059 9.50170898 14.27148438 C9.51108994 15.51627563 9.52047089 16.76106689 9.53013611 18.0435791 C9.51965739 19.39364309 9.50828832 20.74370042 9.49609375 22.09375 C9.49624884 23.487102 9.49773952 24.88045444 9.50050354 26.27380371 C9.50188557 29.1890783 9.48936329 32.10385973 9.46655273 35.01904297 C9.43816793 38.74823606 9.44090767 42.47661026 9.45364285 46.20586395 C9.46061143 49.08159327 9.45279744 51.95713466 9.44038582 54.83283997 C9.43588272 56.20749693 9.43552452 57.58217415 9.43945122 58.95683289 C9.44237466 60.88076109 9.42365618 62.80468507 9.40405273 64.72851562 C9.39864975 65.82151978 9.39324677 66.91452393 9.38768005 68.04064941 C8.7880038 72.61827021 6.52804694 76.05996089 3 79 C-0.65288193 80.21762731 -3.15754136 80.39075851 -7 80 C-10.76282735 77.86202992 -13.44076371 75.04553247 -15 71 C-15.28088379 68.17436218 -15.28088379 68.17436218 -15.32226562 64.8737793 C-15.34148071 63.63536789 -15.3606958 62.39695648 -15.38049316 61.12101746 C-15.39019043 59.77209209 -15.39874777 58.42315811 -15.40625 57.07421875 C-15.41776409 55.68422952 -15.42927941 54.29424031 -15.4407959 52.9042511 C-15.46178045 49.99157235 -15.47348853 47.07900341 -15.48046875 44.16625977 C-15.49142704 40.44693398 -15.53946594 36.72907686 -15.59641266 33.01021099 C-15.63379766 30.13871624 -15.64408341 27.26757053 -15.6471405 24.39585304 C-15.65316606 23.02555125 -15.66913073 21.65525359 -15.69551086 20.28519249 C-15.91059018 8.25557167 -15.91059018 8.25557167 -12.08398438 3.66723633 C-8.21421962 -0.0638109 -5.39434489 -0.3657183 0 0 Z " fill="#DEE0E6" transform="translate(429,20)"/>
<path d="M0 0 C4.13904865 1.82888196 6.47266737 4.28133605 9 8 C9.50793457 10.95262146 9.50793457 10.95262146 9.51757812 14.25561523 C9.53018677 15.4971788 9.54279541 16.73874237 9.55578613 18.01792908 C9.54862525 19.3648231 9.54042099 20.71171192 9.53125 22.05859375 C9.5339471 23.44955211 9.53783134 24.84050863 9.54284668 26.23146057 C9.54873358 29.14252729 9.5402071 32.05310197 9.52148438 34.96411133 C9.49871549 38.68438449 9.51180831 42.40350195 9.53577423 46.12373257 C9.55027291 48.99523015 9.54560748 51.86645668 9.53526306 54.73796272 C9.53260585 56.10901084 9.53583001 57.48008403 9.54518127 58.85110283 C9.61584294 72.12422234 9.61584294 72.12422234 5 77 C2.13425743 79.32357506 0.27427821 79.95428696 -3.375 80.5625 C-8.17037689 79.81838979 -10.86426413 77.64064249 -14 74 C-15.07374944 70.77875169 -15.15944054 68.37633397 -15.20874023 64.98730469 C-15.22803085 63.74881775 -15.24732147 62.51033081 -15.26719666 61.23431396 C-15.28200514 59.88017831 -15.29577836 58.52603099 -15.30859375 57.171875 C-15.31516558 56.48831184 -15.3217374 55.80474869 -15.32850838 55.1004715 C-15.36107301 51.48090178 -15.38552885 47.86136111 -15.4050293 44.24169922 C-15.42282557 41.25395639 -15.45761936 38.26716046 -15.50756836 35.27978516 C-15.5679337 31.66465528 -15.59852638 28.05040139 -15.60820198 24.43479156 C-15.6167313 23.06167651 -15.63548757 21.68858328 -15.6649456 20.31575775 C-15.90988277 8.24973176 -15.90988277 8.24973176 -12.08618164 3.66503906 C-8.2148369 -0.06296356 -5.393296 -0.36564719 0 0 Z " fill="#DEE0E6" transform="translate(89,20)"/>
<path d="M0 0 C4.7869608 1.74908183 6.78562418 3.45184746 9 8 C9.38095093 10.95262146 9.38095093 10.95262146 9.38818359 14.25561523 C9.39764008 15.4971788 9.40709656 16.73874237 9.4168396 18.01792908 C9.41146895 19.36482056 9.40531576 20.71170912 9.3984375 22.05859375 C9.40046033 23.44955091 9.4033735 24.84050703 9.40713501 26.23146057 C9.41155006 29.14244717 9.40515506 32.05315699 9.39111328 34.96411133 C9.37403742 38.68420977 9.38385699 42.40365805 9.40183067 46.12373257 C9.41270454 48.99519186 9.4092055 51.86649868 9.4014473 54.73796272 C9.39945439 56.10901022 9.40187245 57.48007182 9.40888596 58.85110283 C9.4165572 60.77239571 9.40277993 62.69373749 9.38818359 64.61499023 C9.38579681 65.70577377 9.38341003 66.79655731 9.38095093 67.9203949 C8.93605518 71.51692956 7.87257151 73.91075473 6 77 C1.69142571 79.93766429 -1.83767005 80.73747571 -7 80 C-10.75452476 77.83491936 -13.43670593 75.05679833 -15 71 C-15.26742554 68.20559692 -15.26742554 68.20559692 -15.29052734 64.94970703 C-15.30328705 63.72808868 -15.31604675 62.50647034 -15.32919312 61.24783325 C-15.33253159 59.27277298 -15.33253159 59.27277298 -15.3359375 57.2578125 C-15.34236821 55.88784649 -15.34909677 54.51788185 -15.35610962 53.1479187 C-15.36807331 50.27810483 -15.37179141 47.40841126 -15.37060547 44.53857422 C-15.37040237 40.87103907 -15.3976977 37.20427963 -15.43214989 33.53692818 C-15.45444839 30.70751441 -15.45844212 27.87828642 -15.45738602 25.04879379 C-15.46087716 23.04249074 -15.48252229 21.03624568 -15.50448608 19.03005981 C-15.46343673 10.83839494 -14.88048798 7.01429791 -9.1875 1.125 C-5.95746393 -0.53616141 -3.58570502 -0.370935 0 0 Z " fill="#DEE0E6" transform="translate(259,20)"/>
<path d="M0 0 C4.21991975 0.32138462 6.62477605 0.71843517 10.171875 3.1796875 C12.62942904 6.82638059 12.72695581 8.73162183 12.109375 13.0546875 C10.75690611 16.25790328 9.82378782 17.64920996 6.796875 19.3671875 C3.62182807 20.17940881 1.37132147 20.53038803 -1.890625 20.0546875 C-5.73190805 16.81093737 -7.69842472 14.75245665 -8.265625 9.7421875 C-7.79849125 5.14870563 -6.37022282 3.94020765 -2.890625 1.0546875 C-1.890625 0.0546875 -1.890625 0.0546875 0 0 Z " fill="#080606" transform="translate(253.890625,171.9453125)"/>
</svg>
